PathFileType	4	(X/Y/Z)	RBDS04\RBDS04runT45.trc
DataRate	CameraRate	NumFrames	NumMarkers	Units	OrigDataRate	OrigDataStartFrame	OrigNumFrames
150.000000	150.000000	6	33	mm	150.000000	1125	4500
Frame#	Time	L.ASIS			L.Heel.Bottom			L.Heel.Lateral			L.Heel.Top			L.Iliac.Crest			L.MT1			L.MT5			L.PSIS			L.Shank.Bottom.Lateral			L.Shank.Bottom.Medial			L.Shank.Top.Lateral			L.Shank.Top.Medial			L.Thigh.Bottom.Lateral			L.Thigh.Bottom.Medial			L.Thigh.Top.Lateral			L.Thigh.Top.Medial			R.ASIS			R.ASY			R.Heel.Bottom			R.Heel.Lateral			R.Heel.Top			R.Iliac.Crest			R.MT1			R.MT5			R.PSIS			R.Shank.Bottom.Lateral			R.Shank.Bottom.Medial			R.Shank.Top.Lateral			R.Shank.Top.Medial			R.Thigh.Bottom.Lateral			R.Thigh.Bottom.Medial			R.Thigh.Top.Lateral			R.Thigh.Top.Medial			
		X1	Y1	Z1	X2	Y2	Z2	X3	Y3	Z3	X4	Y4	Z4	X5	Y5	Z5	X6	Y6	Z6	X7	Y7	Z7	X8	Y8	Z8	X9	Y9	Z9	X10	Y10	Z10	X11	Y11	Z11	X12	Y12	Z12	X13	Y13	Z13	X14	Y14	Z14	X15	Y15	Z15	X16	Y16	Z16	X17	Y17	Z17	X18	Y18	Z18	X19	Y19	Z19	X20	Y20	Z20	X21	Y21	Z21	X22	Y22	Z22	X23	Y23	Z23	X24	Y24	Z24	X25	Y25	Z25	X26	Y26	Z26	X27	Y27	Z27	X28	Y28	Z28	X29	Y29	Z29	X30	Y30	Z30	X31	Y31	Z31	X32	Y32	Z32	X33	Y33	Z33	

1126	7.500000000000001	2263.538911697161	959.3861391543521	925.9572593957173	2327.823126451271	36.99082637006687	989.5325462568737	2354.667402865979	48.51219468679231	942.4939056477597	2333.009313979118	82.17475143897587	979.4271483278061	2197.886437702561	1025.371155882112	872.3324952533712	2539.632563390205	80.92721510888431	1001.064828079026	2504.970445061756	46.71463893307303	911.7296095368517	2103.182405762258	995.1553368416288	977.5350996980774	2370.26511370175	180.0608287490969	912.2132756297358	2330.692785531455	172.4441489401003	942.8546676067272	2347.332090124751	254.9279384937375	893.9009892886755	2305.67228186326	251.6467991381482	926.8373171076536	2285.749954762866	609.4893466643988	853.9137885251171	2231.219259527065	586.894841879862	896.0927969281653	2234.159363968824	705.918310626202	840.4589457659307	2182.082075914396	684.7586945033707	879.3994733148829	2265.896628045573	942.5459418384609	1112.232918817641	-20777590.1782811	-58219190.02225703	-184904674.1925244	1676.336321910143	584.4722691580707	1023.449553023728	1668.939831949894	554.4777419839381	1067.892220844777	1713.01396661257	561.0465459608937	1037.286485125828	2227.396022116666	1016.63482203039	1147.3117451638	1622.850731831461	377.1874218128498	1006.703949501001	1597.640988960279	419.8509384639872	1092.100212155664	2110.035104997768	994.6103627317442	1064.683239982759	1776.631099307804	511.8697250208374	1095.139278613321	1782.621960182609	543.9334387320122	1052.758233032544	1855.215953722426	521.6091040609784	1113.009626323818	1860.489245212594	551.2822276851481	1069.119886828819	2115.071137897943	575.5837181559707	1156.588853576367	2066.505850779332	586.3302040784071	1102.131822993625	2117.66733718752	684.3826081856463	1173.553402300176	2067.189656769856	694.6163368418519	1124.913677727376	
1127	7.506666666666667	2261.348744368639	954.8400659693614	924.7224534008374	2302.679516694167	35.17812865519495	993.0316156942204	2330.009784345335	47.40894900514525	946.5650032123654	2309.802904760929	80.41617180003527	984.8030359214931	2195.814463492236	1019.371550438617	871.7472687421844	2516.495668432208	71.27866816309501	1005.775855787421	2480.330931309742	42.30314636557434	915.1650929605958	2100.786902893718	990.0187884344532	978.7275102766101	2352.886307241973	174.4548238348909	917.3232992979015	2312.764601383568	169.1562832237074	947.482607157546	2333.772837786497	249.9383831026273	897.9830994263539	2291.768177210224	249.131659138447	930.525169482601	2282.907883759245	606.0111539061326	855.0514361232272	2228.211040653764	583.2059529447456	896.8952776989893	2230.71016365846	702.0187012141512	840.9706530725273	2178.617203898908	680.7139098075319	879.7768751736812	2265.676145786583	937.4615979729914	1111.253704525489	-20882721.51407317	-58512551.85938106	-185838149.4602619	1694.463164394794	590.6662413105275	1021.613704948925	1686.894650818383	561.9060568448024	1067.038676851118	1730.795254535059	566.8281870931098	1035.648329338579	2227.506989124178	1010.692471533058	1147.690491688021	1636.483885120297	383.7482948941882	1010.978109216984	1613.270483129884	429.2109890204468	1095.749663529937	2108.406546645117	988.8741678541687	1065.537351189359	1793.810741500786	515.5688299694605	1095.484563266141	1800.963590943473	546.9788432512852	1052.997572732093	1872.598802380544	522.1024839820268	1113.265787088094	1879.010059501619	551.1819355891027	1069.166461430912	2125.773676574385	567.3386228805638	1157.48705059959	2076.479284378974	576.1395823864531	1103.553027659896	2124.737813410297	676.3025524731305	1174.213750155299	2073.809616861988	684.5043610542518	1125.782475484313	
1128	7.513333333333334	2258.72744548417	950.2260702447672	923.3498434980024	2275.640345367337	33.6908522619869	996.1518304953017	2303.458436174315	47.04234936452433	950.3899312200681	2284.570864439232	79.00556561930647	990.1345536376481	2193.254950983241	1012.96938551678	871.1356503031366	2491.251709641781	62.61599486680282	1010.515712164657	2453.720656358346	39.29907416751303	918.494795418701	2098.067356699388	984.9839939390175	980.1507037037298	2334.030455395679	169.4046984337643	922.6897692211089	2293.308706424773	166.6547146221869	952.200393603575	2319.167385981813	245.4439893116419	902.2541649971263	2276.810178963451	247.3373141961612	934.2482289244405	2279.74567519899	602.5389317430948	856.0642385177124	2225.025680986985	579.5874834787005	897.807065143524	2226.874701305037	698.1167655779228	841.3741823646302	2174.85635567684	676.7095728563938	880.2044861225968	2265.259076238636	932.2025492078336	1110.063857565371	-20988206.78489918	-58806897.51559745	-186774761.1366819	1713.012711389949	595.5006990277328	1020.40956482557	1705.61132500991	567.7480498776649	1066.656040414029	1749.163272746421	571.3955478964792	1034.392883988635	2227.368872005984	1004.443170725983	1148.15493063925	1651.648354904208	388.8907997148265	1015.073164868072	1630.59120599404	436.5539333131953	1099.438912074621	2106.509866465447	983.1573811886237	1066.536426007417	1811.965336533096	518.2185807833135	1096.090349501576	1820.151690738871	549.0616163534115	1053.550818230722	1890.865116344074	521.7600129850167	1113.732245516714	1898.279081710921	550.3811347570349	1069.515906246776	2137.272957927804	559.3629920949746	1158.406430962077	2087.072934422204	566.0375619838449	1105.237899178274	2132.308354039413	668.3598215988378	1174.955115180655	2080.765906177223	674.3230586669082	1127.003881842148	
1129	7.52	2255.688551306095	945.6926826553138	921.8758308411331	2247.210174337782	32.53621797000279	998.8498382037831	2275.488255117877	47.29035972818193	953.8659499916048	2257.72744968114	77.92962514165819	995.1962337069658	2190.158114178423	1006.363885509751	870.5404174948476	2464.305998379739	55.2941233424045	1015.034264464522	2425.601421237656	37.63416766152874	921.6109816587974	2095.079480110604	980.1911766156106	981.7721772891601	2313.878278925489	165.0473982269069	928.0352306386696	2272.556025547967	164.9905729344468	956.751458899716	2303.557761902828	241.5218976972194	906.4975006479051	2260.880692107253	246.2441808871141	937.8043251266424	2276.00007828388	599.0204367149372	856.9173442822109	2221.396972692997	576.0743191820114	898.8338558642338	2222.537020297179	694.2452775266808	841.6718359540974	2170.678841152856	672.857158572656	880.7172434686511	2264.620531407025	926.9197683095649	1108.689030648811	-21094046.58541813	-59102228.63780466	-187714514.4819865	1731.73712679175	599.0118678639238	1020.013261475278	1724.86282800465	571.9752838216076	1066.874268582477	1767.886813874337	574.7854236232497	1033.658897933258	2226.863820188548	998.0413819575887	1148.712708295756	1668.197991109375	392.573085490305	1018.872258476424	1649.435673163393	441.7199274494034	1103.103069568578	2104.374068301589	977.6252543388709	1067.649733984846	1830.886848935793	519.8450198749604	1096.971917999575	1839.966127258222	550.2576306057906	1054.432970958234	1909.850428459733	520.6919942236416	1114.405637069458	1918.113521689334	549.0322857219775	1070.181544534831	2149.572710345165	551.9430342833574	1159.311979164349	2098.366761625577	556.3017499391872	1107.088183822278	2140.372078551343	660.7970597280732	1175.733082033137	2088.092605878335	664.305824335796	1128.51516385483	
1130	7.526666666666667	2252.283570854445	941.3828389686838	920.3293946555831	2217.836194185666	31.70139203557567	1001.097082237659	2246.520661468962	47.98586990136306	956.8975424474787	2229.656210415621	77.16033328843039	999.7654120902166	2186.498604891593	999.7811373269091	870.0013155664117	2436.054431822221	49.51347499114058	1019.09400937442	2396.400482804307	37.11260094404415	924.4046879196079	2091.900373898172	975.7640713220911	983.5362869312606	2292.586472808594	161.4576070926839	933.0590559204509	2250.713444357699	164.1530801292733	960.8664101428036	2286.963174581018	238.1999577114665	910.4726593133039	2244.034131067694	245.7865929496795	940.9757131868301	2271.439815880472	595.42187515885	857.5877389803712	2217.067510444952	572.7000303585572	899.950031772172	2217.607163943475	690.44594773936	841.872059114484	2165.976734845667	669.2630682474791	881.3305068191212	2263.746011349938	921.781644700069	1107.168996817275	-21200241.51028898	-59398546.8729011	-188657414.7563774	1750.38936735563	601.2233334514523	1020.544283105109	1744.414118779998	574.5695541699469	1067.782182236031	1786.727066229678	577.0296464018322	1033.549850434411	2225.898999737832	991.6715388624041	1149.357971052628	1685.985085682207	394.7473391083021	1022.280554432851	1669.61801722925	444.5901333768185	1106.677173705374	2102.047260548426	972.4409757708545	1068.830937406575	1850.351011504449	520.4874078704557	1098.123094939467	1860.16363888468	550.6512194229323	1055.635991124826	1929.37141885521	519.0326040513169	1115.266976784474	1938.307048883426	547.3009036068634	1071.153772527619	2162.646262018628	545.378249113268	1160.171256063181	2110.427307995413	547.2346934442065	1108.991703403881	2148.906635506641	653.8686956414541	1176.502032244714	2095.829172910743	654.7086583966778	1130.226492664933	
1131	7.533333333333334	2248.601849977191	937.4225035533668	918.7321957969493	2187.883901467563	31.15620530929669	1002.881720937679	2216.902067011307	48.94337324763633	959.407245644298	2200.689514015709	76.66020854195889	1003.650606770228	2182.291908715738	993.4580306750092	869.5492346344282	2406.859859248474	45.31444917611369	1022.503006815401	2366.48714100834	37.45539596078964	926.7804980363336	2088.625112796216	971.8035892606373	985.3659462116379	2270.28284755278	158.6456827066565	937.4788344026495	2227.953065214074	164.0736018142964	964.3004636540824	2269.382884974528	235.4571443965802	913.9476527340262	2226.296306527394	245.859953062922	943.5582359411666	2265.8830854163	591.7300579603716	858.0594645172957	2211.808714732687	569.4942543318209	901.0947818767398	2212.030193108286	686.7667674224338	841.9828641376546	2160.663865622706	666.0208783975951	882.030884417016	2262.635750384251	916.9650153527496	1105.555641346308	-21306792.15417064	-59695853.86778519	-189603467.2200565	1768.729901820564	602.1379312529384	1022.053564715652	1764.027673902433	575.5205096614835	1069.417771286859	1805.443873361228	578.1479666085089	1034.125049940058	2224.421288203069	985.5401830387716	1150.068572275688	1704.86838438523	395.3625786606059	1025.232171271239	1690.940851386422	445.0973510929916	1110.099402237542	2099.594312432326	967.7545527747726	1070.020725589102	1870.126956722853	520.1959000788542	1099.515905635845	1880.486872856414	550.3290621388626	1057.130612573488	1949.230949723654	516.9311021623649	1116.283933498	1958.635230925732	545.354377501358	1072.401098874272	2176.433632840783	539.9598860509628	1160.955673204774	2123.294236462261	539.1439660795613	1110.83298404928	2157.873870970494	647.8229626840707	1177.219424519146	2104.012914674051	645.794517255036	1132.03046672237	
